<svg id="Capa_1" enable-background="new 0 0 512 512" height="512" viewBox="0 0 512 512" width="512" xmlns="http://www.w3.org/2000/svg"><g><g><path d="m145.993 7.984-100.006 100.007v304.019h116.007v92.006l88.006-92.006h44.002l172.011-172.011v-232.015z" fill="#ebcdfa"/></g><g><path d="m225.998 384.008v-72.004h-80.005v-304.02l-100.006 100.007v304.019h116.007v92.006l88.006-92.006h44.002l100.007-100.006h-96.006z" fill="#c8aaed"/></g><g><path d="m290.002 215.997h-16.001c-4.418 0-8-3.582-8-8.001v-88.006c0-4.419 3.582-8.001 8-8.001h16.001c4.419 0 8 3.582 8 8.001v88.006c.001 4.419-3.581 8.001-8 8.001z" fill="#9c89c2"/></g><g><path d="m386.008 215.997h-16.001c-4.419 0-8-3.582-8-8.001v-88.006c0-4.419 3.582-8.001 8-8.001h16.001c4.418 0 8 3.582 8 8.001v88.006c.001 4.419-3.581 8.001-8 8.001z" fill="#9c89c2"/></g><g><path d="m169.995 7.984c0 13.256 10.746 24.002 24.001 24.002h240.015c4.418 0 8 3.582 8 8v160.01c0 13.256 10.746 24.001 24.002 24.001v-216.013z" fill="#fff"/></g><path d="m466.014 0h-320.02c-2.205 0-4.201.894-5.646 2.339h-.001l-100.007 100.005c-1.497 1.498-2.338 3.528-2.338 5.646v304.02c0 4.409 3.575 7.984 7.985 7.984h108.023v84.021c0 3.262 1.983 6.196 5.011 7.41.965.387 1.973.574 2.972.574 2.138 0 4.236-.86 5.772-2.466l85.647-89.54h40.591c2.118 0 4.148-.841 5.646-2.338l172.011-172.01c1.497-1.498 2.338-3.528 2.338-5.646v-232.015c0-4.409-3.575-7.984-7.984-7.984zm-175.319 404.025h-40.695c-2.179 0-4.263.891-5.77 2.465l-74.251 77.627v-72.107c0-4.409-3.575-7.984-7.984-7.984h-108.024v-292.729l84.038-84.036v284.743c0 4.409 3.575 7.984 7.984 7.984h72.02v64.02c0 3.229 1.946 6.14 4.929 7.376.988.409 2.025.608 3.054.608 2.078 0 4.12-.811 5.648-2.338l69.666-69.666h73.422zm167.334-167.333-67.327 67.327h-92.699c-2.118 0-4.148.841-5.646 2.338l-58.374 58.374v-52.728c0-4.409-3.575-7.984-7.984-7.984h-72.02v-288.05h304.052v220.723z" fill="#9c89c2"/><g><path d="m290.002 223.982h-16.001c-8.814 0-15.984-7.171-15.984-15.984v-88.006c0-8.814 7.171-15.984 15.984-15.984h16.001c8.815 0 15.985 7.171 15.985 15.984v88.006c0 8.813-7.17 15.984-15.985 15.984zm-16.001-104.006-.016 88.021 16.016.016c.009 0 .013-.001.013-.001l.004-88.021z" fill="#283246"/></g><g><path d="m386.008 223.982h-16.001c-8.814 0-15.984-7.171-15.984-15.984v-88.006c0-8.814 7.171-15.984 15.984-15.984h16.001c8.815 0 15.985 7.171 15.985 15.984v88.006c0 8.813-7.17 15.984-15.985 15.984zm-16.001-104.006-.016 88.021 16.017.016c.009 0 .013-.001.013-.001l.004-88.021z" fill="#283246"/></g><g><path d="m161.992 512c-.999 0-2.007-.187-2.972-.574-3.026-1.214-5.011-4.149-5.011-7.41v-84.021h-108.023c-4.409 0-7.985-3.575-7.985-7.984v-236.016c0-4.409 3.575-7.984 7.985-7.984 4.409 0 7.984 3.575 7.984 7.984v228.03h108.023c4.409 0 7.984 3.575 7.984 7.984v72.107l74.251-77.626c1.507-1.575 3.591-2.466 5.77-2.466h40.695l33.664-33.664c3.12-3.117 8.174-3.116 11.292 0 3.118 3.119 3.118 8.174 0 11.292l-36.003 36.002c-1.498 1.497-3.528 2.338-5.646 2.338h-40.591l-85.647 89.541c-1.534 1.607-3.631 2.467-5.77 2.467z" fill="#283246"/></g></g></svg>